# xmcd
#
# Track frame offsets: 
#        150
#        15515
#        30810
#        42145
#        55037
#        68765
#        88052
#        105452
#        120737
#        137187
#        152710
#
# Disc length: 2248 seconds
#
# Revision: 4
# Processed by: cddbd v1.5.2PL0 Copyright (c) Steve Scherf et al.
# Submitted via: ExactAudioCopy v0.95b4
#
DISCID=7f08c60b
DTITLE=Tracy Byrd - Keepers: Greatest Hits
DYEAR=2000
DGENRE=Country
TTITLE0=When Mama Ain't Happy
TTITLE1=Someone to Give My Love To
TTITLE2=Holdin' Heaven
TTITLE3=Lifestyles of the Not So Rich and Famous
TTITLE4=Watermelon Crawl
TTITLE5=The Keeper of the Stars (Radio Version)
TTITLE6=Love Lessons
TTITLE7=Heaven in My Woman's Eyes
TTITLE8=Big Love
TTITLE9=Don't Take Her She's All I Got
TTITLE10=I'm From the Country
EXTD=\nYEAR: 2000  ID3G:   2
EXTT0=
EXTT1=
EXTT2=
EXTT3=
EXTT4=
EXTT5=
EXTT6=
EXTT7=
EXTT8=
EXTT9=
EXTT10=
PLAYORDER=
